# xmcd CD database file
#
# Track frame offsets:
#	150
#	13404
#	32452
#	55054
#	73831
#	86190
#	108036
#	122356
#	145514
#	168312
#	200678
#	223119
#	242960
#	262934
#	279194
#	295517
#	312911
#	329674
#	343320
#
# Disc length: 4826 seconds
#
# Revision: 0
# Processed by: cddbd v1.5.2PL0 Copyright (c) Steve Scherf et al.
# Submitted via: CDex 1.51
#
DISCID=1c12d813
DTITLE=Eric Clapton - Complete Clapton CD1
DYEAR=2007
DGENRE=Blues
TTITLE0=I Feel Free (Cream)
TTITLE1=Sunshine Of Your Love (Cream)
TTITLE2=White Room (Cream)
TTITLE3=Crossroads (Live At Winterland) (Cream)
TTITLE4=Badge (Cream)
TTITLE5=Presence Of The Lord (Blind Faith)
TTITLE6=After Midnight
TTITLE7=Let It Rain
TTITLE8=Bell Bottom Blues (Derek and The Dominos)
TTITLE9=Layla (Derek and The Dominos)
TTITLE10=Let It Grow
TTITLE11=I Shot The Sheriff
TTITLE12=Knockin' On Heaven's Door
TTITLE13=Hello Old Friend
TTITLE14=Cocaine
TTITLE15=Lay Down Sally
TTITLE16=Wonderful Tonight
TTITLE17=Promises
TTITLE18=I Can't Stand It
EXTD=YEAR: 2007
EXTT0=
EXTT1=
EXTT2=
EXTT3=
EXTT4=
EXTT5=
EXTT6=
EXTT7=
EXTT8=
EXTT9=
EXTT10=
EXTT11=
EXTT12=
EXTT13=
EXTT14=
EXTT15=
EXTT16=
EXTT17=
EXTT18=
PLAYORDER=
